<svg width="304" height="250" viewBox="0 0 304 250" fill="none" xmlns="http://www.w3.org/2000/svg">
<path d="M136.038 24.7491C130.777 27.0823 125.849 30.4054 121.536 34.7184C116.205 40.0493 112.386 46.3199 110.08 52.997H134.038C135.142 52.997 136.038 52.1015 136.038 50.997V24.7491Z" fill="#459087"/>
<path d="M146.924 21.4016C161.932 18.6774 177.985 23.1163 189.587 34.7183C194.918 40.0493 198.736 46.32 201.043 52.9971L148.924 52.9971C147.82 52.9971 146.924 52.1017 146.924 50.9971V21.4016Z" fill="#60C5B9"/>
<path d="M164.627 116.006C149.497 118.894 133.249 114.482 121.536 102.769C118.602 99.8348 116.126 96.6158 114.108 93.2011L162.627 93.201C163.732 93.2011 164.627 94.0965 164.627 95.201V116.006Z" fill="#60C5B9"/>
<path d="M109.386 82.3148C107.63 76.3216 107.064 70.0539 107.687 63.8836H162.627C163.732 63.8836 164.627 64.779 164.627 65.8836V80.3148C164.627 81.4194 163.732 82.3148 162.627 82.3148H109.386Z" fill="#459087"/>
<path d="M203.436 63.8835C204.837 77.7632 200.22 92.1355 189.587 102.769C185.391 106.965 180.613 110.224 175.513 112.546V65.8835C175.513 64.7789 176.409 63.8835 177.513 63.8835L203.436 63.8835Z" fill="#459087"/>
<path fill-rule="evenodd" clip-rule="evenodd" d="M113.33 122.995C140.301 144.044 179.359 142.164 204.17 117.353C231.016 90.5067 231.016 46.9806 204.17 20.1345C177.324 -6.71151 133.798 -6.71151 106.952 20.1345C82.1413 44.9455 80.2604 84.0033 101.31 110.974L82.4896 129.794C79.1701 133.114 79.1701 138.496 82.4896 141.815C85.809 145.135 91.191 145.135 94.5104 141.815L113.33 122.995ZM194.978 108.16C173.209 129.93 137.914 129.93 116.145 108.16C94.3753 86.3911 94.3753 51.0962 116.145 29.3269C137.914 7.55769 173.209 7.55769 194.978 29.3269C216.747 51.0962 216.747 86.3911 194.978 108.16Z" fill="#148571"/>
<path d="M10.1649 196.341C11.4718 194.499 13.2628 192.972 15.5378 191.76C17.8612 190.5 20.4992 189.87 23.4519 189.87C26.8886 189.87 29.9865 190.718 32.7455 192.414C35.553 194.111 37.7554 196.535 39.3527 199.685C40.9985 202.788 41.8213 206.399 41.8213 210.519C41.8213 214.639 40.9985 218.299 39.3527 221.498C37.7554 224.649 35.553 227.097 32.7455 228.842C29.9865 230.587 26.8886 231.459 23.4519 231.459C20.4992 231.459 17.8854 230.853 15.6104 229.641C13.3838 228.43 11.5686 226.903 10.1649 225.061V250H0V190.524H10.1649V196.341ZM31.4386 210.519C31.4386 208.095 30.9304 206.011 29.9139 204.266C28.9458 202.472 27.6389 201.115 25.9931 200.194C24.3958 199.273 22.6532 198.813 20.7655 198.813C18.9261 198.813 17.1835 199.297 15.5378 200.267C13.9404 201.188 12.6335 202.545 11.617 204.339C10.649 206.132 10.1649 208.241 10.1649 210.664C10.1649 213.088 10.649 215.197 11.617 216.99C12.6335 218.784 13.9404 220.165 15.5378 221.134C17.1835 222.055 18.9261 222.516 20.7655 222.516C22.6532 222.516 24.3958 222.031 25.9931 221.062C27.6389 220.092 28.9458 218.711 29.9139 216.917C30.9304 215.124 31.4386 212.991 31.4386 210.519Z" fill="#148571"/>
<path d="M56.8316 196.777C58.1385 194.644 59.8327 192.972 61.9141 191.76C64.0438 190.548 66.4641 189.942 69.1747 189.942V200.63H66.4883C63.2936 200.63 60.8734 201.382 59.2276 202.884C57.6303 204.387 56.8316 207.005 56.8316 210.737V230.805H46.6667V190.524H56.8316V196.777Z" fill="#148571"/>
<path d="M91.3412 231.459C87.4689 231.459 83.9838 230.611 80.8859 228.914C77.788 227.169 75.3436 224.721 73.5526 221.571C71.8101 218.42 70.9388 214.785 70.9388 210.664C70.9388 206.544 71.8343 202.909 73.6253 199.758C75.4646 196.607 77.9574 194.184 81.1037 192.487C84.25 190.742 87.7593 189.87 91.6317 189.87C95.504 189.87 99.0133 190.742 102.16 192.487C105.306 194.184 107.775 196.607 109.565 199.758C111.405 202.909 112.325 206.544 112.325 210.664C112.325 214.785 111.381 218.42 109.493 221.571C107.653 224.721 105.136 227.169 101.942 228.914C98.7955 230.611 95.262 231.459 91.3412 231.459ZM91.3412 222.589C93.1806 222.589 94.899 222.152 96.4963 221.28C98.142 220.359 99.449 219.002 100.417 217.208C101.385 215.415 101.869 213.233 101.869 210.664C101.869 206.835 100.853 203.902 98.8197 201.867C96.8351 199.782 94.3907 198.74 91.4865 198.74C88.5822 198.74 86.1378 199.782 84.1532 201.867C82.217 203.902 81.2489 206.835 81.2489 210.664C81.2489 214.494 82.1928 217.451 84.0806 219.535C86.0168 221.571 88.437 222.589 91.3412 222.589Z" fill="#148571"/>
<path d="M127.405 196.413C128.711 194.474 130.502 192.899 132.777 191.687C135.101 190.475 137.739 189.87 140.692 189.87C144.128 189.87 147.226 190.718 149.985 192.414C152.793 194.111 154.995 196.535 156.592 199.685C158.238 202.788 159.061 206.399 159.061 210.519C159.061 214.639 158.238 218.299 156.592 221.498C154.995 224.649 152.793 227.097 149.985 228.842C147.226 230.587 144.128 231.459 140.692 231.459C137.69 231.459 135.052 230.877 132.777 229.714C130.551 228.502 128.76 226.951 127.405 225.061V230.805H117.24V177H127.405V196.413ZM148.678 210.519C148.678 208.095 148.17 206.011 147.154 204.266C146.185 202.472 144.879 201.115 143.233 200.194C141.635 199.273 139.893 198.813 138.005 198.813C136.166 198.813 134.423 199.297 132.777 200.267C131.18 201.188 129.873 202.545 128.857 204.339C127.889 206.132 127.405 208.241 127.405 210.664C127.405 213.088 127.889 215.197 128.857 216.99C129.873 218.784 131.18 220.165 132.777 221.134C134.423 222.055 136.166 222.516 138.005 222.516C139.893 222.516 141.635 222.031 143.233 221.062C144.879 220.092 146.185 218.711 147.154 216.917C148.17 215.124 148.678 212.991 148.678 210.519Z" fill="#148571"/>
<path d="M201.299 209.792C201.299 211.246 201.202 212.555 201.008 213.718H171.603C171.845 216.626 172.861 218.905 174.652 220.553C176.443 222.201 178.645 223.025 181.259 223.025C185.035 223.025 187.721 221.401 189.319 218.153H200.282C199.12 222.031 196.894 225.23 193.602 227.751C190.311 230.223 186.269 231.459 181.477 231.459C177.605 231.459 174.12 230.611 171.022 228.914C167.972 227.169 165.576 224.721 163.834 221.571C162.14 218.42 161.292 214.785 161.292 210.664C161.292 206.496 162.14 202.836 163.834 199.685C165.528 196.535 167.9 194.111 170.949 192.414C173.999 190.718 177.508 189.87 181.477 189.87C185.301 189.87 188.714 190.694 191.715 192.342C194.764 193.99 197.112 196.341 198.757 199.394C200.452 202.4 201.299 205.866 201.299 209.792ZM190.771 206.883C190.722 204.266 189.778 202.182 187.939 200.63C186.1 199.031 183.849 198.231 181.187 198.231C178.67 198.231 176.54 199.007 174.797 200.558C173.103 202.06 172.062 204.169 171.675 206.883H190.771Z" fill="#148571"/>
<path d="M237.107 200.558V209.137H206.322V200.558H237.107Z" fill="#148571"/>
<path d="M256.131 196.777C257.438 194.644 259.132 192.972 261.213 191.76C263.343 190.548 265.763 189.942 268.474 189.942V200.63H265.787C262.593 200.63 260.173 201.382 258.527 202.884C256.929 204.387 256.131 207.005 256.131 210.737V230.805H245.966V190.524H256.131V196.777Z" fill="#148571"/>
<path d="M288.172 231.459C284.88 231.459 281.928 230.877 279.314 229.714C276.7 228.502 274.619 226.878 273.07 224.843C271.569 222.807 270.746 220.553 270.601 218.081H280.839C281.032 219.632 281.782 220.916 283.089 221.934C284.445 222.952 286.115 223.461 288.099 223.461C290.035 223.461 291.536 223.073 292.601 222.298C293.714 221.522 294.271 220.529 294.271 219.317C294.271 218.008 293.593 217.039 292.238 216.408C290.931 215.73 288.825 215.003 285.921 214.227C282.92 213.5 280.451 212.749 278.515 211.973C276.627 211.198 274.982 210.01 273.578 208.41C272.223 206.811 271.545 204.654 271.545 201.939C271.545 199.709 272.174 197.674 273.433 195.832C274.74 193.99 276.579 192.536 278.951 191.469C281.371 190.403 284.203 189.87 287.446 189.87C292.238 189.87 296.062 191.081 298.918 193.505C301.773 195.88 303.347 199.104 303.637 203.175H293.908C293.762 201.576 293.085 200.315 291.875 199.394C290.713 198.425 289.14 197.94 287.155 197.94C285.316 197.94 283.888 198.28 282.872 198.958C281.903 199.637 281.419 200.582 281.419 201.794C281.419 203.151 282.097 204.193 283.452 204.92C284.808 205.599 286.913 206.302 289.769 207.029C292.673 207.756 295.069 208.507 296.957 209.283C298.845 210.058 300.466 211.27 301.822 212.918C303.226 214.518 303.952 216.651 304 219.317C304 221.643 303.347 223.728 302.04 225.57C300.781 227.412 298.942 228.866 296.522 229.932C294.15 230.95 291.366 231.459 288.172 231.459Z" fill="#148571"/>
</svg>
